<?xml version="1.0" encoding="UTF-8"?>
<svg xmlns="http://www.w3.org/2000/svg" viewBox="0 0 300.5 300.5">
  <defs>
    <style>
      .cls-1, .cls-2, .cls-3, .cls-4, .cls-5, .cls-6, .cls-7, .cls-8, .cls-9, .cls-10, .cls-11, .cls-12, .cls-13, .cls-14, .cls-15, .cls-16, .cls-17, .cls-18, .cls-19, .cls-20, .cls-21, .cls-22, .cls-23, .cls-24, .cls-25, .cls-26 {
        stroke-width: 0px;
      }

      .cls-1, .cls-5, .cls-27, .cls-28 {
        mix-blend-mode: screen;
      }

      .cls-1, .cls-28, .cls-6, .cls-7 {
        opacity: .5;
      }

      .cls-1, .cls-20 {
        fill: #e57428;
      }

      .cls-2, .cls-3, .cls-4, .cls-29, .cls-6, .cls-7 {
        mix-blend-mode: multiply;
      }

      .cls-2, .cls-22 {
        fill: #faed8d;
      }

      .cls-3, .cls-21 {
        fill: #e5d5be;
      }

      .cls-4, .cls-23 {
        fill: #e8ca5c;
      }

      .cls-5 {
        fill: #89bd27;
      }

      .cls-6, .cls-12 {
        fill: #dbba4f;
      }

      .cls-7, .cls-16 {
        fill: #c15914;
      }

      .cls-30 {
        isolation: isolate;
      }

      .cls-9 {
        fill: #955913;
      }

      .cls-10 {
        fill: #3e9f32;
      }

      .cls-11 {
        fill: #c4903c;
      }

      .cls-13 {
        fill: #dadada;
      }

      .cls-14 {
        fill: #db6c21;
      }

      .cls-15 {
        fill: #c15b16;
      }

      .cls-17 {
        fill: #a97623;
      }

      .cls-18 {
        fill: #9e6a1e;
      }

      .cls-19 {
        fill: #fff;
      }

      .cls-24 {
        fill: #f4f4f4;
      }

      .cls-25 {
        fill: #006ec3;
      }

      .cls-26 {
        fill: #68b42e;
      }
    </style>
  </defs>
  <g class="cls-30">
    <g id="katman_2" data-name="katman 2">
      <g id="Layer_1" data-name="Layer 1">
        <path class="cls-24" d="m300.5,150.25c0,82.98-67.27,150.25-150.25,150.25S0,233.23,0,150.25,67.27,0,150.25,0s150.25,67.27,150.25,150.25Z"/>
        <path class="cls-25" d="m150.25,10.22c18.9,0,37.24,3.7,54.51,11,16.67,7.05,31.65,17.15,44.51,30.01,12.86,12.86,22.96,27.84,30.01,44.51,7.3,17.26,11,35.6,11,54.51s-3.7,37.24-11,54.5c-7.05,16.68-17.15,31.65-30.01,44.51-12.86,12.86-27.84,22.96-44.51,30.01-17.26,7.3-35.6,11-54.51,11s-37.25-3.7-54.51-11c-16.68-7.05-31.65-17.15-44.51-30.01-12.86-12.86-22.96-27.84-30.01-44.51-7.3-17.26-11-35.6-11-54.5s3.7-37.25,11-54.51c7.05-16.67,17.15-31.65,30.01-44.51,12.86-12.86,27.84-22.96,44.51-30.01,17.26-7.3,35.6-11,54.51-11h0Zm0-3.48C70.99,6.73,6.73,70.99,6.73,150.25s64.25,143.52,143.52,143.52,143.52-64.25,143.52-143.52S229.51,6.73,150.25,6.73h0Z"/>
        <path class="cls-25" d="m150.25,15.09c18.25,0,35.94,3.57,52.61,10.62,16.09,6.81,30.55,16.55,42.96,28.97,12.41,12.41,22.16,26.87,28.97,42.96,7.05,16.66,10.62,34.36,10.62,52.61s-3.57,35.95-10.62,52.61c-6.81,16.09-16.55,30.55-28.97,42.96-12.41,12.41-26.87,22.16-42.96,28.97-16.66,7.05-34.36,10.62-52.61,10.62s-35.95-3.57-52.61-10.62c-16.09-6.81-30.55-16.55-42.96-28.97-12.41-12.41-22.16-26.87-28.97-42.96-7.05-16.66-10.62-34.36-10.62-52.61s3.57-35.95,10.62-52.61c6.81-16.09,16.55-30.55,28.97-42.96,12.41-12.41,26.87-22.16,42.96-28.97,16.66-7.05,34.36-10.62,52.61-10.62h0Zm0-1.39C74.84,13.7,13.7,74.84,13.7,150.25s61.14,136.55,136.55,136.55,136.55-61.14,136.55-136.55S225.67,13.7,150.25,13.7h0Z"/>
        <path class="cls-13" d="m253.47,150.25c0,57-46.21,103.21-103.22,103.21s-103.22-46.21-103.22-103.21,46.21-103.22,103.22-103.22,103.22,46.21,103.22,103.22Z"/>
        <path class="cls-24" d="m251.27,150.25c0,55.79-45.23,101.02-101.02,101.02s-101.02-45.23-101.02-101.02,45.23-101.02,101.02-101.02,101.02,45.23,101.02,101.02Z"/>
        <g class="cls-29">
          <path class="cls-13" d="m239.92,104.08c-5.52-9.6-18.49-27.37-23.05-24.73-4.55,2.63-8.14,6.46-6.5,11.95-.15-.18-.3-.35-.46-.54-.02-.02-.04-.04-.05-.06-.2-.22-.4-.44-.62-.67,0,0,0,0,0,0-6.16-6.52-19.17-15.41-24.33-17.9-5.18-2.5-6.82-2.58-14.8-.1t0,0s-.06.02-.09.03c-.02,0-.04.01-.06.02-.21.07-.43.14-.66.21-.11.04-.23.07-.35.11-.18.06-.36.11-.55.17-.08.03-.16.05-.24.08-.29.09-.58.18-.88.28-.51.16-1.01.31-1.5.46-.15.04-.3.08-.45.12-.34.1-.68.19-1.01.28-.17.04-.34.08-.51.13-.3.08-.6.16-.9.22-.17.04-.34.08-.51.12-.29.06-.57.13-.85.19-.17.04-.33.07-.5.1-.27.05-.55.11-.82.16-.16.03-.31.06-.47.08-.27.05-.54.09-.81.13-.15.02-.29.04-.44.06-.27.04-.54.07-.8.11-.13.02-.26.03-.39.05-.28.03-.55.06-.82.08-.11,0-.22.02-.33.03-.29.02-.58.04-.86.06-.08,0-.17.01-.26.02-.32.02-.63.03-.94.03-.04,0-.09,0-.13,0-2.19.04-4.16-.14-5.97-.47h0c-4.13-.76-7.45-2.29-10.82-3.75-7.32-3.17-13.66,1.78-21.77,8.91-4.45,3.91-8.18,8.47-10.65,11.79,1.11-6.57-1.17-10.17-7.79-6.08,0,0-14.56,9.44-23.85,24.33-6.88,13.12-8.64,16.17.8,22.89,9.44,6.72,10.08,5.28,10.08,10.08s-1.12,21.77,3.2,22.25c2.27,0,3.16-5.67,7.14-12.1,0,.09.01.18.02.27.02.36.05.72.08,1.08.02.23.04.45.07.67.03.34.07.68.11,1.02.03.21.06.43.08.64.05.33.09.66.15.99.03.2.07.4.1.59.06.33.12.66.18.98.04.18.07.35.11.53.07.34.15.68.23,1.01.04.15.07.29.11.44.09.37.2.73.3,1.09.03.1.06.2.09.3.13.44.27.87.41,1.3,0,.01,0,.02.01.04.18.53.37,1.04.57,1.55-3.08,4.7-10.48,18.01-7.6,33.94,2.88,13.45,14.16,14.4,25.69,16.57,12.24,1.92,19.93,6,22.33,9.84,1.68,2.69,2.77,3.96,3.93,3.74.54.93,1.01,2.25.05,3.11-1.61,1.45-3.54,4.03-1.29,6.12,1.67,1.55,3.64,1.07,4.95.16h0s0,0,0,0c.23-.16.43-.33.62-.5,0,0,0,0,0,0,.08-.08.16-.16.23-.24,0,0,.02-.02.02-.03.08-.09.15-.18.21-.27.96-1.37,2.09-1.61,3.62-1.37.12.02.24.03.36.03.03,0,.06,0,.08,0,.11,0,.21-.01.32-.03,0,0,.02,0,.03,0,.25-.04.5-.13.74-.26h0c.91-.49,1.66-1.59,1.93-3.28.4-2.57-2.09-3.46-2.5-5.47-.26-1.29-.88-2.88-1.29-3.85.94-1.85.73-5-.74-7.94-.95-1.89-2.08-3.91-3.42-6-.03-.05-.06-.09-.09-.14-.28-.44-.57-.88-.87-1.32,0,0,0-.01-.01-.02-.11-.17-.23-.34-.34-.51,4.43,3.28,7.33,4.16,12.06,3.89,7.12-.39,9.3-3.96,16.23-9.3.63-.49,1.25-.96,1.87-1.42-.93,1.69-1.45,3.48-2.13,5.76-.16.54-.32,1.08-.48,1.62,0,.02,0,.04-.02.06h0c-1.63,5.62-2.9,10.58-5.39,13.45-2.21,2.55-1.11,4.56,1.17,4.44-.4,1.14-1.28,2.82-3.06,3.45-2.8.99-3.79,2.33-2.44,4.62,1.27,2.14,2.81,2.27,4.11,1.76h0c.08-.03.16-.07.25-.11.13-.06.26-.1.4-.14.03,0,.05-.01.08-.02.13-.03.28-.05.42-.06.03,0,.05,0,.08,0,.31-.02.64,0,.98.06.02,0,.04,0,.06,0,.17.03.34.07.52.11.02,0,.04,0,.05.01.37.1.75.22,1.12.37,0,0,.02,0,.02,0,.19.07.38.15.57.24.31.14.62.29.93.45,1.81.93,4.04-.31,3.79-2.9-.26-2.59-.57-4.15,1.3-5.45,1.06-.74,2.21-1.9,3-2.76,1.61.02,3.42-1.2,7.67-4.51,12.82-10.29,25.63-12.82,34.67-20.17,9.04-7.35,10.09-19.12,4.2-30.04-3.55-6.6-8.18-9.9-11.29-11.48h0s0,0,0,0c-.42-.22-.82-.4-1.19-.56,1.15-6.22,1.57-12.85,1.84-19.39,7.48,9.32,8.61,13.9,9.93,17.66,1.44,4.08,3.12,4.56,6.96-3.12s3.12-15.6,2.64-21.13c-.48-5.52,1.2-6.96,4.56-11.28,3.36-4.32,6-8.4.48-18.01Z"/>
          <path class="cls-13" d="m120.04,224.47c.2.46.42,1.03.64,1.71,1.04,3.17,2.05,8.66.28,15.83-2.02,8.54-4.97,12.63-.05,20.73.06.09.11.19.17.28,0,0-.48-1.92,3.84-6.24,4.32-4.32,7.92-9.96,6.12-16.8-1.68-6.4-7.62-9.29-11.01-15.5Z"/>
          <path class="cls-13" d="m106.03,221.55c-5.93-2.09-10.7-3.84-15.94-6.4-2.65-1.3-3.98-1.4-4.7-1.09-.07-.33-.15-.66-.22-.97,0,0,0-.01,0-.02h0c-.36-1.46-.78-2.66-1.26-3.49,0-.01-.02-.03-.03-.04-.06-.09-.12-.19-.17-.27,0,0,0,0,0-.01,2.17-5.5,3.25-12.2,3.25-18.3,0-5.16-1.03-9.73-2.51-13.17.11-.57.2-1.18.28-1.82,0,0,0,0,0,0h0c.49-4.22.09-9.98-2.13-17.7-.93-3.25-2.05-5.56-3.29-7.13-3.22-4.06-7.25-2.99-10.95.25-6.44,6.84-8.01,15.83-8.28,21.56-5.37,2.88-13.18,8.66-17,19.09-2.21,6.02-2.5,11.15-1.44,15.25,1.6,6.16,6.21,9.97,11.68,10.84,1.88.29,3.64.22,5.26-.14h0s0,0,0,0c.64-.14,1.26-.33,1.85-.55.58.65,1.19,1.28,1.85,1.84-1.36,2.59-3.75,7.75-4.35,12.77-.1,1.32.07,2.44.48,3.42,1.3,3.04,5.07,4.65,11.08,6.33,6.41,1.8,13.64,1.41,16.4-1.07h0s0,0,0,0c.29-.26.54-.55.72-.86,0,0,0-.02.01-.03.04-.07.09-.15.12-.23,1.88,3.65,4.22,6.31,6.94,7.07.42.12.85.2,1.29.23,4.19.23,14.66-.58,17.56-3.96.24-.28.48-.58.72-.9,2.59-3.48,4.58-8.99,2.42-14.57-1.4-3.61-3.72-3.84-9.65-5.93Zm-41.19,9.32s-.04-.09-.07-.14c.02.05.04.1.07.14Zm-.22-.46c-.02-.05-.05-.12-.07-.17.02.06.05.12.07.17Zm-.2-.49c-.03-.07-.05-.14-.07-.21.02.07.05.14.07.21Zm-.18-.53c-.03-.08-.05-.17-.07-.25.02.08.05.17.07.25Zm-.16-.56c-.02-.1-.05-.2-.07-.29.02.1.05.2.07.29Zm-.14-.6c-.03-.12-.05-.24-.07-.36.02.12.04.24.07.36Zm-.12-.64c-.03-.15-.05-.31-.07-.46.02.16.04.31.07.46Zm-.1-.68c-.03-.23-.06-.47-.08-.72.02.25.05.48.08.72Zm35.42,9.64s-.07-.05-.1-.08c.03.03.07.05.1.08Zm-1.35-1.08c-.05-.04-.1-.08-.16-.13.05.04.1.09.16.13Zm12.79,6.82c-.05,0-.11-.01-.16-.02.05,0,.11.01.16.02Zm-.54-.08s-.09-.02-.14-.02c.05,0,.1.02.14.02Zm-.57-.11s-.07-.02-.11-.03c.04,0,.07.02.11.03Zm-.61-.15s-.04,0-.06-.02c.02,0,.04.01.06.02Zm-43.83-10.76s.04.07.06.11c-.02-.04-.04-.07-.06-.11Zm.26.43s.04.06.05.09c-.02-.03-.04-.06-.05-.09Zm.28.4s.03.04.04.06c-.02-.02-.03-.04-.04-.06Zm.29.37s.02.03.04.04c-.01-.01-.02-.03-.04-.04Zm.3.34s.02.02.03.03c0,0-.02-.02-.03-.03Zm.98.88s0,0,0,0h0s0,0,0,0Zm-.67-.56s.01.01.02.02c0,0-.01-.01-.02-.02Zm.33.29s0,0,.01,0c0,0,0,0-.01,0Zm6.04,2.86c.28.1.55.2.83.3-.28-.1-.55-.2-.83-.3Zm-.56-.2c.1.04.2.07.3.1-.1-.04-.2-.07-.3-.1Zm24.11-1.73c-.05-.05-.11-.1-.17-.15.05.05.11.1.17.15Zm-1.44-1.3s-.09-.08-.13-.12c.04.04.09.08.13.12Zm16.46,9.37c.06,0,.11,0,.17,0-.06,0-.11,0-.17,0Zm-.48-.02c.06,0,.11,0,.17.01-.05,0-.11,0-.17-.01Zm.95,0c.06,0,.11,0,.17-.01-.05,0-.11,0-.17.01Zm.45-.04c.05,0,.11-.01.16-.02-.05,0-.1.01-.16.02Zm.44-.08s.09-.02.13-.03c-.04.01-.09.02-.13.03Z"/>
        </g>
        <g>
          <g>
            <path class="cls-21" d="m139.5,226.55s2.41,2.74.8,4.18c-1.61,1.45-3.54,4.03-1.29,6.12,2.25,2.09,5.07.48,6.04-.89.96-1.37,2.09-1.61,3.62-1.37s3.06-.96,3.46-3.54c.4-2.57-2.09-3.46-2.49-5.47-.4-2.01-1.69-4.75-1.69-4.75l-8.45,5.71Z"/>
            <path class="cls-21" d="m166.5,223.19s-.57,3.58-3.37,4.56c-2.8.99-3.79,2.33-2.44,4.62,1.35,2.28,3.01,2.28,4.36,1.66,1.35-.62,3.42.1,5.24,1.04,1.81.93,4.04-.31,3.79-2.9-.26-2.59-.57-4.15,1.3-5.45,1.87-1.29,3.99-3.89,3.99-3.89,0,0-4.51-4.87-12.86.36Z"/>
            <g class="cls-29">
              <path class="cls-21" d="m148.81,233.24c.16-1.84-2.4-1.52-3.76.48-.95,1.4-1.28,2.37-1.08,3.29.46-.32.84-.69,1.09-1.05.96-1.37,2.09-1.61,3.62-1.37.53.08,1.05,0,1.53-.27-.77,0-1.47-.24-1.4-1.09Z"/>
            </g>
            <path class="cls-16" d="m210.19,156.41s8.82,1.89,14.71,12.82c5.88,10.92,4.83,22.69-4.2,30.04-9.04,7.35-21.85,9.87-34.67,20.17-6.72,5.25-7.35,5.25-10.71,3.36-3.36-1.89-3.99-.42-7.35,1.05-3.36,1.47-5.67-.84-2.94-3.99,2.73-3.15,3.99-8.82,5.88-15.13,1.89-6.3,2.52-8.82,13.87-15.97,11.35-7.14,20.38-11.97,25.42-32.35Z"/>
            <path class="cls-7" d="m170.77,205.87c3.93-5.69,8.89-9.79,14.91-13.11,7.65-4.23,15.67-8.99,20.67-16.38,3.81-5.63,5.73-12.09,7.25-18.64-2.04-1.04-3.42-1.34-3.42-1.34-5.04,20.38-14.08,25.21-25.42,32.35-11.34,7.14-11.97,9.67-13.87,15.97-.17.56-.33,1.12-.49,1.68.12-.18.24-.36.36-.54Z"/>
            <path class="cls-16" d="m147.61,213.79c2,3.99,1.68,8.4-.72,9.36-2.4.96-3.12,1.2-5.04,3.36-1.92,2.16-3.12,1.2-5.52-2.64-2.4-3.84-10.08-7.92-22.33-9.84-11.52-2.16-22.81-3.12-25.69-16.57-3.6-19.93,8.88-35.77,8.88-35.77,0,0,12.48,13.92,25.69,23.77,13.2,9.84,20.65,20.17,24.73,28.33Z"/>
            <path class="cls-7" d="m99.37,173.14c2.38,3.65,5.74,6.39,9.17,9,3.35,2.55,6.49,5.42,9.96,7.83,3.38,2.34,6.95,4.38,10.36,6.68,3.02,2.04,5.79,4.37,8.68,6.59,2.5,1.93,5.02,3.85,7.47,5.84-4.41-7.24-11.34-15.59-22.12-23.63-13.21-9.84-25.69-23.77-25.69-23.77,0,0-.87,1.11-2.08,3.1,1.29,2.85,2.55,5.73,4.25,8.35Z"/>
            <path class="cls-20" d="m100.5,94.31s5.74-9.3,13.86-16.43c8.11-7.12,14.45-12.07,21.77-8.91,7.32,3.17,14.45,6.73,30.08,1.78,10.49-3.37,11.88-3.56,17.62-.79,5.74,2.77,21.18,13.46,26.12,19.99,4.95,6.53,5.74,16.23,4.75,36.62-.99,20.39.15,44.87-17.02,56.01-11.28,7.32-17.98,11.23-26.52,17.81-6.93,5.35-9.1,8.91-16.23,9.3-7.12.4-10.09-1.78-20.39-10.89-10.29-9.1-14.84-12.07-23.75-18.21-8.91-6.14-17.81-14.25-17.62-33.65.4-18.01-4.16-32.26,7.32-52.65Z"/>
            <path class="cls-15" d="m209.96,89.96c-.66-.88-1.52-1.83-2.51-2.83,2.04,5.02,3.61,10.18,2.58,15.7-1.44,7.76-6.72,15.31-4.65,23.45,1.03,4.05,3.13,7.74,4.88,11.5,1.62,3.47,2.73,7.2,2.99,11.04.05.75.07,1.5.07,2.25.93-8.11,1-16.61,1.38-24.51.99-20.39.2-30.08-4.75-36.62Z"/>
            <path class="cls-1" d="m156.44,161.05c-2.34-9.42-4.41-18.79-5.04-28.53-.32-4.87,0-9.73-.56-14.59-.57-4.97-2.25-10.05-4.33-14.54-2.04-4.41-4.65-8.57-7.34-12.6-2.49-3.74-4.82-8.04-7.94-11.3-3.62-3.78-7.24-.72-9.98,2.31-3.24,3.59-6.5,7.22-9.05,11.34-3.61,5.84-5.91,12.95-6.3,19.9-.19,3.34.76,6.68,1.71,9.84.99,3.3,2.03,6.54,2.85,9.89,1.57,6.41-1.67,13.25-2.55,19.55-.99,7.01-.04,13.36,3.8,19.24,3.46,5.29,8.47,9.75,13.15,13.82,4.11,3.57,8.64,6.93,13.72,8.75,6.52,2.34,11.78,8.07,16.32-5,3.15-9.06,3.72-19.36,1.55-28.09Z"/>
            <g>
              <polygon class="cls-10" points="184.92 143.37 184.93 143.37 184.92 143.37 184.91 143.37 184.92 143.37"/>
              <path class="cls-1" d="m202.54,113.67c-1.27-7.15-3.82-14.79-7.46-21.09-1.71-2.96-3.85-5.71-6.22-8.16-2.32-2.39-5.2-5.25-8.83-4.9-15.72,1.52-21.07,27.27-20.74,39.53.2,7.19,1.19,14.42,2.45,21.49,1.17,6.54,1.49,20.06,6.26,25.02,5.71,5.94,15.91-4.45,21.03-8.77,6.3-5.31,10.34-12.85,12.78-20.6,2.34-7.43,2.08-14.94.73-22.52Z"/>
            </g>
            <path class="cls-15" d="m99.58,170.23c-1.19-2.77-2.16-5.6-2.82-8.46-1.81-7.93,2.94-13.95,6.14-20.73,2.5-5.28,2.8-10.35,1.17-15.94-1.35-4.65-3.68-9.34-3.54-14.28.14-4.89,1.91-9.46,3.55-14.01,1.37-3.8,2.26-7.71,3.17-11.63-4.17,4.92-6.77,9.13-6.77,9.13-11.48,20.39-6.93,34.64-7.32,52.65-.11,10.65,2.53,17.89,6.4,23.28Z"/>
            <path class="cls-15" d="m160.08,75.31c3.49-1.12,6.05-3.45,8.95-5.45-.86.27-1.79.56-2.81.89-8.45,2.67-14.41,2.86-19.27,1.97,4.03,2.44,8.44,4.09,13.13,2.59Z"/>
            <path class="cls-3" d="m166.02,230.44c-1.76-1.04-2.08,0-.8.96,1.28.96-1.36.8-.56,2.16.12.2.16.39.14.57.08-.03.17-.07.25-.11,1.13-.52,2.76-.1,4.32.6.79-2.54-1.74-3.23-3.35-4.18Z"/>
            <path class="cls-15" d="m153.2,110.24c-.98-4.65-3.04-8.66-5.26-12.83-1.98-3.72-3.77-7.74-6.14-11.21-.13-.19-.49.17-.4.34.78,1.55,1.22,3.22,2,4.79,1.03,2.07,2.03,4.14,3.05,6.21,2.22,4.5,4.32,8.79,5.29,13.75,1.79,9.13,2.86,19.94,4.29,29.12.17,1.06.34-1.79.29-2.48-.59-9.27-1.21-18.58-3.13-27.68Z"/>
            <path class="cls-15" d="m166.46,83.04c-1,1.49-2.2,2.66-3.02,4.27-1.01,1.99-1.82,4.07-2.76,6.09-1.6,3.45-3.02,7.52-2.88,11.37.03.88,1.3-.22,1.37-.67.71-4.07,1.53-7.76,3.17-11.59.75-1.77,1.38-3.57,2.21-5.31.68-1.45,1.7-2.68,2.38-4.13.2-.42-.33-.24-.47-.03Z"/>
            <g>
              <path class="cls-8" d="m174.37,101.55c-.09-.12-.18-.25-.25-.38-.14-.24-.33-.46-.5-.67-.09-.11-.3.03-.37.09-.14.12-.27.31-.22.5.13.52.25,1.25.7,1.6.33.26.75-.39.77-.65,0-.2,0-.32-.12-.48Z"/>
              <path class="cls-8" d="m183.3,99.48c-.16-.29-.37-.54-.56-.81,0-.03,0-.06-.04-.06-.06-.08-.11-.17-.16-.26-.18-.31-.76.26-.63.53.2.41.5.76.71,1.17.17.34.85-.29.68-.58Z"/>
              <path class="cls-8" d="m172.52,140.25c-.43,0-1.07,1.05-.45,1.05.43,0,1.07-1.05.45-1.05Z"/>
              <path class="cls-8" d="m181.83,131.13c-.45,0-1.12,1.09-.47,1.09.45,0,1.12-1.09.47-1.09Z"/>
              <path class="cls-8" d="m137.97,131.14c-.32.03-.58.32-.76.57-.18.25-.2.57-.22.87-.01.36,0,.85.45.87.13,0,.26-.05.37-.13.04-.01.07-.02.11-.04.41-.2.7-.72.78-1.16.08-.43-.24-1.02-.73-.98Z"/>
              <path class="cls-8" d="m142.81,137.84c-.44,0-1.08,1.06-.46,1.06.44,0,1.08-1.06.46-1.06Z"/>
              <path class="cls-8" d="m151.35,142.32c-.37,0-.91.89-.38.89.37,0,.91-.89.38-.89Z"/>
              <path class="cls-8" d="m165.74,154.93c-.09-.58-.87.13-.91.44l-.02.15c-.04.25.1.41.36.32.26-.1.64-.47.59-.78,0-.04-.01-.09-.02-.13Z"/>
              <path class="cls-8" d="m123.1,129.26s-.09-.04-.14-.03c-.2-.04-.41.17-.5.32-.18.32-.22.68-.1,1.04.08.24.25.25.42.19.11,0,.23-.09.32-.21.08-.08.15-.17.18-.24.13-.3.13-.86-.18-1.06Z"/>
              <path class="cls-8" d="m125.1,108.76c-.27-.23-.6-.4-.93-.16-.39.27-.54.68-.23,1.05.19.22.52.42.79.49.12.03.27-.05.41-.16.13.05.41-.25.42-.36.04-.37-.21-.63-.47-.85Z"/>
              <path class="cls-8" d="m119.36,109.59c-.17-.06-.34-.01-.49.08-.28.12-.51.4-.58.7-.1.42.19,1.03.67,1.06.31.02.57-.24.69-.51.16-.38.2-1.16-.29-1.33Z"/>
              <path class="cls-8" d="m129.33,93.64c-.18-.21-.58.31-.52.51.04.11.1.21.16.32.08.15.11.31.22.43.11.12.33-.03.42-.1.13-.11.27-.3.26-.48-.02-.34-.34-.45-.55-.68Z"/>
              <path class="cls-8" d="m126.85,147.04c-.05-.15-.2-.23-.26-.38-.12-.29-.11-.64-.18-.94-.03-.13-.23-.07-.3-.02-.13.08-.26.22-.29.38-.07.37-.14.71-.12,1.09.03.45.3.91.79.58.21-.14.45-.43.35-.7Z"/>
              <path class="cls-8" d="m133.06,149.06c-.04-.1-.07-.15-.16-.2-.04-.03-.11-.06-.13-.11-.08-.17-.29-.11-.41-.03-.22.13-.39.37-.41.63,0,.11.02.2.05.31.05.16.13.24.29.31.2.08.46-.16.58-.28.13-.15.29-.41.2-.61Z"/>
              <path class="cls-8" d="m139.05,157.84c-.03-.09-.07-.18-.11-.27-.06-.14-.24-.09-.35-.03-.16.1-.28.26-.33.44-.04.13-.08.26-.11.4-.07.33.23.39.46.25.25-.15.51-.48.43-.78Z"/>
              <path class="cls-8" d="m129.17,161.45c-.2-.29-.67.24-.58.49.05.13.1.27.12.41.03.16,0,.32.06.47.17.37.65-.25.7-.42.09-.35-.11-.68-.3-.96Z"/>
              <path class="cls-8" d="m139.53,175.65c-.05-.11-.09-.19-.17-.28-.02-.03-.06-.05-.08-.08-.03-.04-.03-.06-.03-.07.04-.24-.22-.25-.41-.1-.23.18-.36.46-.4.74-.04.23-.06.56.17.7.41.24,1.09-.5.91-.9Z"/>
              <path class="cls-8" d="m144.78,183.88c-.08-.2-.34-.12-.47-.04-.02,0-.03.02-.05.03-.23.15-.58.53-.46.84.16.4.73-.13.83-.3.01-.02.02-.03.03-.05.08-.13.17-.32.11-.47Z"/>
              <path class="cls-8" d="m99.54,197.34c-.16-.21-.35-.44-.54-.63-.17-.17-.51.26-.44.44.12.33.14.73.37,1.01.05.06.18.04.24.02.31-.14.62-.5.37-.83Z"/>
              <path class="cls-8" d="m103.89,201.43c-.05-.13-.07-.25-.18-.35-.09-.08-.17-.17-.25-.27-.09-.11-.3.02-.37.09-.14.12-.26.3-.22.49.04.15.05.35.16.47.13.14.26.14.44.12.21-.02.49-.33.41-.55Z"/>
              <path class="cls-8" d="m107.37,196.82c-.13-.35-.66.22-.68.41-.04.29.02.55.2.79.05.07.2.04.27.02.26-.11.53-.39.52-.69,0-.21-.24-.34-.31-.53Z"/>
              <path class="cls-8" d="m114.63,206.29c-.14-.18-.67.37-.37.5.04,0,.08.03.11.06.11.15.41-.21.39-.33-.02-.11-.06-.15-.12-.23Z"/>
              <path class="cls-8" d="m193.55,206.68c-.41,0-1.01.99-.43.99.41,0,1.01-.99.43-.99Z"/>
              <path class="cls-8" d="m198.2,201.81c-.2-.29-.57.13-.66.32-.14.3-.53.64-.34.99.17.32.62,0,.76-.18.23-.28.47-.78.23-1.13Z"/>
              <path class="cls-8" d="m202.55,194.88s0-.01,0-.02c-.04-.26-.32-.23-.51-.12-.26.16-.45.43-.48.74,0,.04,0,.08-.01.13-.03.4.51.18.65.05.05-.04.1-.09.14-.14.14-.15.3-.43.21-.64Z"/>
              <path class="cls-8" d="m210.56,192.67c-.05.01-.11.02-.16.02-.32.03-.61.35-.72.62-.1.24-.08.52.23.53.28,0,.54-.2.69-.4.12-.15.24-.33.23-.54,0-.14-.12-.27-.27-.24Z"/>
              <g>
                <path class="cls-8" d="m215.69,194.99c-.16-.12-.38.01-.51.12-.18.15-.3.35-.32.59,0,.07,0,.13.03.2.02.09.15.14.24.12.26-.05.45-.2.58-.43.09-.16.24-.52-.03-.6Z"/>
                <polygon class="cls-8" points="215.68 194.99 215.69 194.99 215.69 194.99 215.68 194.99"/>
              </g>
              <path class="cls-8" d="m208.1,199.32c-.21.13-.39.37-.4.62,0,.16.04.25.19.32.12.05.28-.07.36-.13.22-.17.3-.42.28-.68-.02-.24-.27-.21-.43-.12Z"/>
              <path class="cls-19" d="m124.53,108.35c-.33,0-.83.81-.35.81.34,0,.83-.81.35-.81Z"/>
              <path class="cls-19" d="m138.28,131.32c-.33,0-.83.81-.35.81.33,0,.83-.81.35-.81Z"/>
              <path class="cls-19" d="m173.68,100.72c-.06-.31-.46.07-.48.24-.03.22-.12.5.05.67.2.2.54-.28.53-.45,0-.16-.06-.3-.09-.46Z"/>
              <path class="cls-19" d="m165.43,154.86c-.13,0-.34.33-.14.33.14,0,.34-.33.14-.33Z"/>
              <path class="cls-19" d="m139.08,175.24s-.03,0-.04,0c-.03,0-.06.02-.09.04-.11.04-.25.21-.15.27,0,0,.02.01.02.02.02.03.04.06.09.07,0,0,0,0,0,0,.08.03.19-.07.22-.13.03-.06.05-.11.05-.18,0-.05-.05-.1-.1-.08Z"/>
              <path class="cls-19" d="m99.06,197.2c-.09-.09-.13-.16-.2-.28-.04-.08-.17.06-.15.13.04.16.04.38.25.32.05-.01.14-.12.09-.17Z"/>
              <path class="cls-19" d="m107.13,197.03c-.17,0-.41.4-.17.4.17,0,.41-.4.17-.4Z"/>
              <path class="cls-19" d="m197.92,201.97s0,0,0,0h-.04c-.16,0-.4.38-.17.39.01,0,.03,0,.04,0,.13,0,.26-.19.27-.31h0c0-.08-.05-.09-.11-.07Z"/>
              <path class="cls-19" d="m210.33,192.79c-.16,0-.41.4-.17.4.16,0,.41-.4.17-.4Z"/>
            </g>
            <path class="cls-14" d="m95.91,83.59s-14.56,9.44-23.85,24.33c-6.88,13.12-8.64,16.17.8,22.89,9.44,6.72,10.08,5.28,10.08,10.08s-1.12,21.77,3.2,22.25c2.56,0,3.36-7.2,8.8-14.57,5.44-7.36,11.36-18.89,6.08-27.85-5.6-9.44-4.48-11.2-.8-20.81,5.76-12,5.28-22.25-4.32-16.33Z"/>
            <g>
              <path class="cls-16" d="m97.77,113.79c-.69-1.11-1.69-1.95-2.54-2.93-1.13-1.29-2.14-2.67-3.34-3.91-1.86-1.91-4.37-2.76-6.99-2.44-5.23.64-9.26,5.45-11.8,9.64-.04.07.03.06.06.02,3.11-4.14,7.46-9.34,13.24-8.66,5.32.62,6.27,7.3,10.63,9.13.32.13.92-.55.74-.84Z"/>
              <path class="cls-16" d="m73.46,128.79c-.44-.91-1.22-1.75-1.81-2.57-.6-.84-.93-1.84-1.54-2.68-.04-.05-.14.07-.12.12.85,1.83,1.26,4.33,2.98,5.62.2.15.58-.28.49-.48Z"/>
              <path class="cls-16" d="m78.92,130.72c-.88-1.35-2.03-2.51-3-3.79-.06-.08-.24.12-.2.19.75,1.43,1.43,3.02,2.6,4.18.21.21.74-.36.59-.58Z"/>
              <path class="cls-16" d="m84.09,135.49c-.29-.49-.71-.89-1.08-1.32-.36-.44-.68-.86-1.11-1.23-.13-.11-.37.18-.32.31.48,1.08.98,2.06,1.96,2.78.22.16.67-.31.54-.53Z"/>
              <path class="cls-16" d="m87.97,140.44c-.42-.8-.93-1.57-1.37-2.36-.1-.18-.37.14-.33.28.14.52.34,1,.54,1.49.17.43.34.85.79,1.02.17.07.46-.28.38-.44Z"/>
              <path class="cls-16" d="m87.42,146.34c-.47-1.08-1.02-2.08-1.16-3.27-.03-.27-.38.1-.39.24-.12,1.22.08,2.71.92,3.66.22.25.74-.38.63-.62Z"/>
            </g>
            <path class="cls-14" d="m209.31,89.19s9.36,13.44,2.16,21.37c-6.96,7.92-7.92,13.68.72,24.73,9.36,11.04,10.56,16.08,12,20.17,1.44,4.08,3.12,4.56,6.96-3.12,3.84-7.68,3.12-15.61,2.64-21.13-.48-5.52,1.2-6.96,4.56-11.28,3.36-4.32,6-8.4.48-18-5.52-9.6-18.49-27.37-23.05-24.73-4.56,2.64-8.16,6.48-6.48,12Z"/>
            <g>
              <path class="cls-16" d="m228.4,101.54c-2.11-1.36-4.91-2.95-7.33-1.22-2.96,2.11-5.61,4.71-7.31,7.96-.37.71.57.4.82.05,1.62-2.27,3.33-4.31,5.45-6.12,3.06-2.62,4.89-.68,8.07-.25.14.02.48-.3.31-.42Z"/>
              <path class="cls-16" d="m237.56,116.14c-.22-.7-.34-1.42-.47-2.14-.11-.65-.09-1.28-.31-1.91-.06-.16-.3.12-.3.22.02.78-.07,1.53.02,2.32.08.65.15,1.46.6,1.96.17.19.52-.28.46-.46Z"/>
              <path class="cls-16" d="m234.24,121c-.2-.6-.41-1.16-.47-1.8-.05-.55.02-1.09.04-1.64,0-.03-.04,0-.05.01-.63,1.08-.78,2.84.04,3.87.15.19.5-.27.45-.44Z"/>
              <path class="cls-16" d="m233.11,128.34c-.25-.49-.53-.96-.77-1.46-.12-.26-.2-.54-.3-.81-.12-.33-.11-.67-.27-.98-.08-.15-.29.12-.27.22.06.3-.03.58.04.89.09.38.15.76.26,1.13.16.57.24,1.2.68,1.62.24.22.74-.37.62-.61Z"/>
              <path class="cls-16" d="m232.32,133.32c-.21-.49-.55-.89-.75-1.39-.19-.47-.28-1-.53-1.44-.07-.13-.28.1-.27.2.13,1.01,0,2.6,1.09,3.15.21.1.53-.34.45-.52Z"/>
            </g>
            <g class="cls-28">
              <path class="cls-14" d="m96.69,84.75c-1.09.93-2.62,1.36-3.78,2.31-1.78,1.46-3.69,2.79-5.49,4.23-3.43,2.75-7.03,6.11-9.45,9.81-.32.48.09.88.52.46,3.27-3.2,5.97-6.91,9.72-9.61,1.52-1.1,2.89-2.43,4.38-3.57,1.36-1.04,3.11-2.17,4.16-3.52.07-.08.03-.2-.08-.11Z"/>
              <path class="cls-14" d="m74.6,106.34c.06-.1-.04-.12-.1-.05-4.21,4.94-8.67,14.5-2.04,19.24.56.4,1.65-.85,1.18-1.35-.94-.98-1.9-1.87-2.59-3.06-.92-1.58-.62-3.59-.36-5.28.5-3.21,2.24-6.72,3.91-9.51Z"/>
            </g>
            <g class="cls-28">
              <path class="cls-14" d="m216.48,78.76c-.81,1.12-2.58,2.31-2.93,3.73-.47,1.91-.51,3.85-.1,5.78.56,2.7,1.11,5.34,1.28,8.1.17,2.78-.56,5.56-1.05,8.27-.18,1.02,1.2.09,1.33-.49.98-4.39,1.09-8.25.48-12.69-.3-2.16-1.11-4.16-1.28-6.35-.21-2.76,1.46-4.1,2.51-6.34.11-.23-.18-.12-.26-.02Z"/>
              <path class="cls-14" d="m218.74,136.31c-1.18-1.82-2.75-3.33-4.08-5.03-1.56-1.98-2.69-4.31-3.87-6.53-1.43-2.7-1.62-5.74-.6-8.6.74-2.09,2.42-3.6,2.89-5.79.1-.48-.55-.09-.63.15-.54,1.51-1.62,2.61-2.65,3.79-.64.73-1.04,1.88-1.41,2.76-.91,2.16-1.16,4.93-.54,7.19,1.32,4.77,4.69,11.3,9.25,13.68.68.35,2.09-.91,1.63-1.61Z"/>
            </g>
            <g class="cls-27">
              <path class="cls-20" d="m119.49,86c-1.12,1.99-3.15,3.85-4.54,5.68-1.4,1.84-2.19,3.83-3.08,5.94-2.09,4.96-4.11,9.23-4.3,14.71-.19,5.42,1.63,10.1,3.42,15.12,1.99,5.59,1.78,11.2,2.47,16.99.13,1.13,1.72-.25,1.78-.87.49-4.73.3-9.43-.72-14.08-1.2-5.48-4.21-10.29-4.62-15.97-.4-5.64,1.23-10.17,3.35-15.28.96-2.32,1.61-4.56,3.03-6.67,1.19-1.77,2.76-3.57,3.55-5.56.12-.29-.24-.19-.33-.02Z"/>
              <path class="cls-20" d="m117.65,171.19c-3.25-6.78-6.91-13.48-4.01-21.08.17-.45-.38-.19-.49.05-1.7,3.5-2.3,6.79-1.6,10.64.75,4.1,2.42,8.07,4.79,11.5.43.63,1.58-.55,1.31-1.11Z"/>
            </g>
          </g>
          <g>
            <g>
              <g>
                <g>
                  <path class="cls-18" d="m81.51,156.09c-.93-3.25-2.05-5.56-3.29-7.13,3.39,5.06,5.91,14.5.49,31.51,1.86-.04,3.21-.42,3.6-1.33,1.76-4.16,2.56-11.36-.8-23.05Z"/>
                  <path class="cls-12" d="m78.21,148.96c-3.22-4.06-7.25-2.99-10.95.24-10.24,10.88-8.16,27.21-8.16,27.21,0,0,13.02,4.18,19.61,4.05,5.42-17.01,2.89-26.45-.49-31.51Z"/>
                </g>
                <path class="cls-6" d="m80.43,170.4c-1.56-1.42-3.4-2.63-4.87-4.12-1.54-1.55-1.94-3.63-2.85-5.55-1.12-2.34-2.89-4.28-4.88-5.92-2.2,3.23-1.8,7.41-3.68,10.78-1.07,1.92-3.18,2.79-5.07,3.81-.33,4.14.03,7.01.03,7.01,0,0,13.02,4.18,19.61,4.05,1.86-.04,3.21-.42,3.6-1.33.6-1.41,1.08-3.18,1.33-5.34-.97-1.22-2.05-2.33-3.21-3.39Z"/>
              </g>
              <g>
                <path class="cls-23" d="m62.55,224.03c.7,7.94,5.57,8.64,10.03,10.31,3.54,1.33,9.79,2.47,13.33,2.34.02-.08.03-.16.04-.25.42-4.32-.28-30.51-4.74-30.23-4.25.27-13.54,1.93-18.39,8.22-.35,2.57-.6,5.94-.28,9.61Z"/>
                <g>
                  <path class="cls-18" d="m62.55,224.03c-.32-3.67-.08-7.04.28-9.61-.24.31-.48.64-.69.97,0,0-4.46,7.38-5.29,14.49-.1,1.32.07,2.44.48,3.42,1.99-.3,5.66-.92,8.73-1.84-1.81-1.38-3.16-3.53-3.5-7.42Z"/>
                  <path class="cls-9" d="m72.58,234.33c-2.27-.85-4.65-1.45-6.53-2.88-3.06.92-6.74,1.55-8.73,1.84,1.3,3.04,5.07,4.65,11.08,6.33,7.79,2.19,16.77,1.16,17.51-2.96-3.55.14-9.8-1.01-13.33-2.34Z"/>
                </g>
              </g>
              <path class="cls-4" d="m63.92,220.2c3.19.72,5.98,1.67,9.07-.08,3.07-1.73,5.52-4.14,7.24-7.22.95-1.71,1.8-3.46,2.77-5.14-.52-1.02-1.11-1.6-1.79-1.56-4.25.27-13.54,1.93-18.39,8.22-.24.31-.48.64-.69.97,0,0-.77,1.27-1.72,3.26.99.7,2.1,1.23,3.51,1.55Z"/>
              <path class="cls-4" d="m81.47,217.48c-.32,2.7-.46,5.46-.09,8.16.46,3.43,1.49,6.66,2.5,9.95.3.99.61,1.98.93,2.96.59-.53.98-1.16,1.11-1.88.02-.08.03-.16.04-.25.3-3.14.02-17.84-1.88-25.53-1.84,1.5-2.34,4.35-2.61,6.58Z"/>
              <g>
                <path class="cls-23" d="m65.82,209.26c.78-1.82,1-3.83.48-5.79-1.76-6.72-1.69-35.13-1.69-35.13,0,0-16.48,4.75-22.64,21.53-2.21,6.02-2.5,11.15-1.44,15.25,3.24,4.94,10.53,11.1,25.29,4.15Z"/>
                <path class="cls-18" d="m40.53,205.11c1.6,6.16,6.21,9.97,11.68,10.84,6.46,1.02,11.7-2.29,13.6-6.69-14.75,6.96-22.05.79-25.29-4.15Z"/>
              </g>
              <path class="cls-4" d="m66.3,203.47c-1.76-6.72-1.69-35.13-1.69-35.13,0,0-.84.25-2.21.81-1.78,1.83-2.39,2.46-2.9,2.95-2.26,2.18-3.99,5.15-5.2,8-1.18,2.79-2.15,5.29-2.58,8.34-.45,3.21-.7,7.09-.47,10.31.23,3.08.78,5.57,1.9,8.49,1.15,3.02,3.05,5.67,4.32,8.58,3.96-.87,6.99-3.43,8.34-6.56.78-1.82,1-3.83.48-5.79Z"/>
              <path class="cls-11" d="m79.06,169.72c3.31,2.06,6.8,9.58,6.8,19.06s-2.6,20.4-7.88,26.04c-5.28,5.64-10.65,7.07-16.2,2.77-5.55-4.29-8.32-12.71-8.32-12.71,0,0,9.88,9.02,19-2.51,9.12-11.52,6.6-32.66,6.6-32.66Z"/>
              <path class="cls-22" d="m82.1,191.96c-2.21,12.54-8.49,22.84-19.47,21.11-9.12-1.44-11.98-12.75-9.76-25.29,2.21-12.54,10.86-21.33,19.54-20.94,10.09.46,11.92,12.58,9.7,25.12Z"/>
              <path class="cls-2" d="m62.01,177.27c-.08,2.9.24,5.86,1.33,8.58,1.83,4.56,4.9,8.42,7.47,12.57.08-2.25.48-4.46,1.36-6.55,1.08-2.53,2.18-4.6,3.02-7.2,2.44-7.57,1.6-11.81.66-17.06-1.22-.52-1.44-.67-3.46-.76-3.16-.14-6.32.94-9.17,2.98-.12,2.48-1.15,4.94-1.21,7.44Z"/>
              <g>
                <g>
                  <path class="cls-10" d="m72.55,189.15c2.93-6.85,6.41-20.49-4.42-34.04.47,2.55.93,6.53.34,10.55-.98,6.75-1.27,13.22,0,20.68.94,5.55,1.65,7.9,1.66,11.06.14.39.25.81.34,1.25-.14-1.24-.13-4.35,2.08-9.5Z"/>
                  <path class="cls-26" d="m68.47,165.66c.59-4.02.12-8-.34-10.55-.07-.09-.14-.19-.22-.28-1.41,4.36-8.58,18.43-3.24,32.49,2.55,5.45,4.53,7.37,5.46,10.08-.01-3.16-.72-5.52-1.66-11.06-1.27-7.46-.98-13.93,0-20.68Z"/>
                </g>
                <path class="cls-5" d="m68.7,193.56c-.86-2.64-1.98-6.98-2.95-9.58-1.02-2.74-1.39-5.8-1.43-8.71-.07-5.33,2.25-10.16,2.71-15.37,0-.08-.11.03-.12.06-1.73,5.59-3.74,10.98-3.8,16.92-.05,5.24,1.62,11.63,4.82,15.82.32.43.89,1.24.77.87Z"/>
              </g>
              <g>
                <g>
                  <path class="cls-26" d="m119.76,223.99l-.16.02c1.04,3.17,2.06,8.66.28,15.83-2.02,8.54-4.97,12.63-.05,20.73,0-3.13,1.84-6.66,4.49-12.8,3.84-9-4.56-23.77-4.56-23.77Z"/>
                  <path class="cls-10" d="m129.96,237.8c-1.68-6.4-7.62-9.29-11.01-15.5.2.46.42,1.03.64,1.71l.16-.02s8.4,14.76,4.56,23.77c-2.65,6.14-4.5,9.68-4.49,12.8.06.09.11.19.17.28,0,0-.48-1.92,3.84-6.24,4.32-4.32,7.92-9.96,6.12-16.8Z"/>
                </g>
                <path class="cls-5" d="m120.98,241.45c.63-3.44,1.3-7.45.43-10.89-.01-.04-.09.03-.09.06.61,4.56-.58,9.18-1.95,13.51-1,3.15-2.71,7.82-.23,10.69.38.43.16-.34.08-.72-.42-2.3.32-4.45.58-6.82.21-1.96.82-3.89,1.18-5.83Z"/>
              </g>
              <g>
                <path class="cls-22" d="m114.6,225.31c-1.4-3.61-3.72-3.84-9.65-5.93-5.93-2.09-10.7-3.84-15.94-6.4-4.1-2.01-5.06-1.15-5.45-.36-.14,2.92,1.06,8.47,8.83,16.76,8.38,8.28,15.97,11.88,19.79,10.5,2.59-3.48,4.58-8.99,2.42-14.57Z"/>
                <g>
                  <path class="cls-11" d="m103.12,237.79c-3.22-1.8-6.9-4.61-10.73-8.41-7.77-8.29-8.96-13.84-8.83-16.76-.11.22-.17.44-.25.59,0,0-3.02,9.77.7,20.47,2.08,5.52,5,9.81,8.6,10.82,2.44-.72,6.75-2.52,10.51-6.72Z"/>
                  <path class="cls-17" d="m103.12,237.79c-3.76,4.2-8.07,6-10.51,6.72.42.12.85.2,1.29.23,4.19.23,14.66-.58,17.56-3.95.24-.28.48-.58.72-.9-2.07.75-5.25.03-9.06-2.1Z"/>
                </g>
              </g>
            </g>
            <g class="cls-27">
              <path class="cls-22" d="m59.75,175.42c-2.97,4.76-6.24,9.75-6.62,15.54-.34,5.21-.45,13.51,4.29,17,.5.37,1.45-.69,1.2-1.18-1.14-2.27-2.42-4.08-3.19-6.55-.86-2.76-.81-5.72-.84-8.58-.06-5.92,3.05-11.03,5.5-16.2.14-.3-.24-.18-.34-.02Z"/>
              <path class="cls-22" d="m67.97,209.81c-2.5-.06-5.7.4-7.6-1.58-.25-.27-.75.4-.66.65.64,1.86,1.95,2.26,3.77,2.5,1.55.21,3.11.27,4.41-.69.23-.17.62-.87.09-.89Z"/>
            </g>
            <g class="cls-27">
              <path class="cls-22" d="m103.74,235.52c-3.55-2.7-7.05-5.21-9.97-8.63-3.13-3.68-6.47-8.08-8.22-12.61-.05-.12-.26.1-.23.2,1.24,4.74,3.82,9.11,6.96,12.89,2.85,3.44,6.36,7.73,10.9,8.91.28.07.86-.54.57-.76Z"/>
              <path class="cls-22" d="m112.75,236.68c-.89-.03-1.84.23-2.75.28-1.11.05-2.84-.15-3.8-.75-.26-.16-.74.38-.53.61,1.59,1.76,5.22,1.81,7.03.42.14-.11.39-.55.05-.56Z"/>
            </g>
          </g>
        </g>
      </g>
    </g>
  </g>
</svg>