<?xml version="1.0" encoding="UTF-8"?>
<svg id="katman_2" data-name="katman 2" xmlns="http://www.w3.org/2000/svg" viewBox="0 0 22.1 90.1">
  <defs>
    <style>
      .cls-1 {
        fill: #DA428D;
        stroke-width: 0px;
      }
    </style>
  </defs>
  <g id="katman_1" data-name="katman 1">
    <path class="cls-1" d="m17.2,31.9c4.9-5.2,4.9-12,4.9-12.6V2.4c0-1.2-1-2.3-2.2-2.4-1.3,0-2.3,1-2.3,2.3v17c0,1.2-.9,2.2-2.1,2.2s-2.2-.9-2.2-2.1V2.4c0-1.2-1-2.3-2.2-2.4-1.3,0-2.3,1-2.3,2.3v17c0,1.2-.9,2.2-2.1,2.2s-2.2-.9-2.2-2.1V2.4C4.5,1.2,3.5.1,2.3,0,1,0,0,1,0,2.3v17c0,.7,0,7.5,4.9,12.6l.4.4c2.7,3,3.9,7.1,3.6,11.2,0,0-3.2,41-3.2,41.3,0,2.9,2.4,5.3,5.3,5.3s5.3-2.4,5.3-5.3c0-.3-3.2-41.3-3.2-41.3-.3-4.1.9-8.1,3.6-11.2.3-.1.4-.3.5-.4Z"/>
  </g>
</svg>