<?xml version="1.0" encoding="UTF-8"?>
<svg id="katman_2" data-name="katman 2" xmlns="http://www.w3.org/2000/svg" viewBox="0 0 90 90">
  <defs>
    <style>
      .cls-1 {
        fill: #f43f5e;
        stroke-width: 0px;
      }
    </style>
  </defs>
  <g id="katman_1" data-name="katman 1">
    <path class="cls-1" d="m81.47,31.68c2.32-2.34,4.2-5.07,5.57-8.07,3.17-6.68,4.53-16.51.29-20.94-4.44-4.24-14.26-2.89-20.94.29-2.99,1.37-5.73,3.25-8.07,5.57-8.28,8.28-7.18,13.03-7.41,18.19-.18,3.91-.86,7.83-4.56,11.44-11.97,11.7-32.28,25.3-44.05,41.13-3.12,4.2-2.8,6.86-.63,9.04s4.84,2.49,9.04-.63c15.83-11.77,29.43-32.08,41.13-44.05,3.61-3.7,7.53-4.38,11.44-4.56,5.16-.24,9.91.87,18.19-7.41Z"/>
  </g>
</svg>